<svg xmlns="http://www.w3.org/2000/svg" width="893" height="613" viewBox="0 0 893 613" role="img" aria-labelledby="title desc">
<title id="title">PUM transcript with a patch diff, grouped reads, and an active goal</title>
<desc id="desc">A real OpenTUI render of PUM: a user prompt, grouped file reads, a syntax-highlighted patch diff, a Bash run, and the goal label on the rule above the prompt.</desc>
<rect width="100%" height="100%" rx="12" fill="#1a1b26"/>
<circle cx="20" cy="18" r="5" fill="#f7768e"/>
<circle cx="38" cy="18" r="5" fill="#e0af68"/>
<circle cx="56" cy="18" r="5" fill="#9ece6a"/>
<rect x="22.4" y="91.0" width="848.4" height="19" fill="#283457"/>
<rect x="56.0" y="224.0" width="814.8" height="19" fill="#3b2630"/>
<rect x="56.0" y="243.0" width="814.8" height="19" fill="#233b32"/>
<rect x="22.4" y="319.0" width="848.4" height="19" fill="#2b234a"/>
<rect x="22.4" y="338.0" width="848.4" height="19" fill="#2b234a"/>
<rect x="434.0" y="528.0" width="436.8" height="19" fill="#292e42"/>
<g font-family="ui-monospace, SFMono-Regular, Menlo, Consolas, monospace" font-size="14" xml:space="preserve">
<text x="14.0 22.4 30.8 39.2 47.6 56.0 64.4 72.8 81.2 89.6 98.0 106.4 114.8 123.2 131.6 140.0 148.4 156.8 165.2 173.6 182.0 190.4 198.8 207.2 215.6 224.0 232.4 240.8 249.2 257.6 266.0 274.4 282.8 291.2 299.6 308.0 316.4 324.8 333.2 341.6 350.0 358.4 366.8 375.2 383.6 392.0 400.4 408.8 417.2 425.6 434.0 442.4 450.8 459.2 467.6 476.0 484.4 492.8 501.2 509.6 518.0 526.4 534.8 543.2 551.6 560.0 568.4 576.8 585.2 593.6 602.0 610.4 618.8 627.2 635.6 644.0 652.4 660.8 669.2 677.6 686.0 694.4 702.8 711.2 719.6 728.0 736.4 744.8 753.2 761.6 770.0 778.4 786.8 795.2 803.6 812.0 820.4 828.8 837.2 845.6 854.0 862.4 870.8" y="48.0" fill="#292e42">───────────────────────────────────────────────────────────────────────────────────────────────────────</text>
<text x="14.0 22.4 30.8 39.2 47.6 56.0" y="67.0" fill="#7aa2f7"> pum  </text>
<text x="64.4 72.8 81.2 89.6 98.0 106.4 114.8 123.2 131.6 140.0 148.4" y="67.0" fill="#c0caf5">gpt-5-codex</text>
<text x="156.8 165.2 173.6 182.0 190.4 198.8 207.2 215.6 224.0" y="67.0" fill="#565f89"> · medium</text>
<text x="795.2 803.6 812.0" y="67.0" fill="#2ac3de">pum</text>
<text x="820.4 828.8 837.2" y="67.0" fill="#565f89"> · </text>
<text x="845.6 854.0 862.4 870.8" y="67.0" fill="#7aa2f7">main</text>
<text x="14.0 22.4 30.8 39.2 47.6 56.0 64.4 72.8 81.2 89.6 98.0 106.4 114.8 123.2 131.6 140.0 148.4 156.8 165.2 173.6 182.0 190.4 198.8 207.2 215.6 224.0 232.4 240.8 249.2 257.6 266.0 274.4 282.8 291.2 299.6 308.0 316.4 324.8 333.2 341.6 350.0 358.4 366.8 375.2 383.6 392.0 400.4 408.8 417.2 425.6 434.0 442.4 450.8 459.2 467.6 476.0 484.4 492.8 501.2 509.6 518.0 526.4 534.8 543.2 551.6 560.0 568.4 576.8 585.2 593.6 602.0 610.4 618.8 627.2 635.6 644.0 652.4 660.8 669.2 677.6 686.0 694.4 702.8 711.2 719.6 728.0 736.4 744.8 753.2 761.6 770.0 778.4 786.8 795.2 803.6 812.0 820.4 828.8 837.2 845.6 854.0 862.4 870.8" y="86.0" fill="#292e42">───────────────────────────────────────────────────────────────────────────────────────────────────────</text>
<text x="22.4 30.8 39.2 47.6 56.0 64.4 72.8 81.2 89.6 98.0 106.4 114.8 123.2 131.6 140.0 148.4 156.8 165.2 173.6 182.0 190.4 198.8 207.2 215.6 224.0 232.4 240.8 249.2 257.6 266.0 274.4 282.8 291.2 299.6 308.0 316.4 324.8 333.2 341.6 350.0 358.4 366.8 375.2 383.6 392.0 400.4 408.8 417.2 425.6 434.0 442.4 450.8 459.2 467.6 476.0 484.4 492.8 501.2 509.6 518.0 526.4 534.8 543.2 551.6 560.0 568.4 576.8" y="105.0" fill="#c0caf5">❯ Make the accent colour match the new palette and check the tests.</text>
<text x="39.2 47.6 56.0 64.4 72.8 81.2 89.6 98.0 106.4 114.8 123.2 131.6 140.0 148.4 156.8 165.2 173.6 182.0 190.4 198.8 207.2 215.6 224.0 232.4 240.8 249.2 257.6 266.0 274.4 282.8 291.2 299.6 308.0 316.4 324.8 333.2 341.6 350.0" y="143.0" fill="#c0caf5">Reading the theme and its tests first.</text>
<text x="22.4 30.8 39.2 47.6 56.0 64.4 72.8 81.2 89.6 98.0 106.4 114.8 123.2 131.6 140.0" y="181.0" fill="#565f89">  Read 2 files.</text>
<text x="22.4 30.8 39.2 47.6 56.0 64.4 72.8" y="219.0" fill="#565f89">  edit(</text>
<text x="81.2 89.6 98.0 106.4 114.8 123.2 131.6 140.0 148.4 156.8 165.2 173.6" y="219.0" fill="#7aa2f7">src/theme.ts</text>
<text x="182.0 190.4 198.8 207.2 215.6 224.0 232.4 240.8" y="219.0" fill="#565f89">)  +1 −1</text>
<text x="862.4" y="219.0" fill="#9ece6a">✓</text>
<text x="56.0" y="238.0" fill="#f7768e">-</text>
<text x="81.2 89.6 98.0 106.4 114.8 123.2" y="238.0" fill="#ff9e64">accent</text>
<text x="131.6" y="238.0" fill="#565f89">:</text>
<text x="148.4 156.8 165.2 173.6 182.0 190.4 198.8 207.2 215.6" y="238.0" fill="#9ece6a">"#7aa2f7"</text>
<text x="224.0" y="238.0" fill="#565f89">,</text>
<text x="56.0" y="257.0" fill="#9ece6a">+</text>
<text x="81.2 89.6 98.0 106.4 114.8 123.2" y="257.0" fill="#ff9e64">accent</text>
<text x="131.6" y="257.0" fill="#565f89">:</text>
<text x="148.4 156.8 165.2 173.6 182.0 190.4 198.8 207.2 215.6" y="257.0" fill="#9ece6a">"#89b4fa"</text>
<text x="224.0" y="257.0" fill="#565f89">,</text>
<text x="22.4 30.8 39.2 47.6 56.0 64.4 72.8" y="295.0" fill="#565f89">  bash(</text>
<text x="81.2 89.6 98.0 106.4 114.8 123.2 131.6 140.0 148.4 156.8 165.2 173.6 182.0 190.4 198.8 207.2 215.6 224.0 232.4 240.8 249.2 257.6 266.0 274.4 282.8 291.2 299.6 308.0" y="295.0" fill="#7aa2f7">bun test tests/theme.test.ts</text>
<text x="316.4" y="295.0" fill="#565f89">)</text>
<text x="862.4" y="295.0" fill="#9ece6a">✓</text>
<text x="22.4 30.8 39.2 47.6 56.0 64.4 72.8 81.2 89.6 98.0 106.4 114.8 123.2 131.6 140.0 148.4 156.8 165.2 173.6 182.0 190.4 198.8" y="333.0" fill="#bb9af7">◇ palette-check → main</text>
<text x="39.2 47.6 56.0 64.4 72.8 81.2 89.6 98.0 106.4 114.8 123.2 131.6 140.0 148.4 156.8 165.2 173.6 182.0 190.4 198.8 207.2 215.6 224.0 232.4 240.8 249.2 257.6 266.0 274.4 282.8 291.2 299.6 308.0 316.4 324.8 333.2 341.6 350.0 358.4 366.8 375.2 383.6 392.0 400.4 408.8 417.2 425.6 434.0 442.4 450.8 459.2 467.6 476.0 484.4 492.8 501.2 509.6 518.0 526.4 534.8 543.2 551.6 560.0 568.4 576.8 585.2 593.6 602.0 610.4" y="352.0" fill="#c0caf5">Checked the other eight presets: only tokyonight used the old accent.</text>
<text x="39.2 47.6 56.0 64.4" y="390.0" fill="#7aa2f7">Done</text>
<text x="39.2 47.6 56.0 64.4 72.8 81.2 89.6 98.0 106.4 114.8 123.2 131.6 140.0 148.4 156.8 165.2 173.6 182.0" y="428.0" fill="#c0caf5">The accent is now </text>
<text x="190.4 198.8 207.2 215.6 224.0 232.4 240.8" y="428.0" fill="#7aa2f7">#89b4fa</text>
<text x="249.2 257.6 266.0 274.4 282.8 291.2 299.6 308.0 316.4 324.8 333.2 341.6 350.0 358.4 366.8 375.2 383.6 392.0 400.4 408.8 417.2 425.6 434.0 442.4 450.8 459.2 467.6 476.0" y="428.0" fill="#c0caf5">, and the preset tests pass.</text>
<text x="39.2 47.6" y="466.0" fill="#565f89">- </text>
<text x="56.0 64.4 72.8 81.2 89.6 98.0 106.4 114.8 123.2 131.6 140.0 148.4" y="466.0" fill="#7aa2f7">src/theme.ts</text>
<text x="156.8 165.2 173.6 182.0 190.4 198.8 207.2 215.6 224.0 232.4 240.8 249.2 257.6 266.0 274.4 282.8 291.2 299.6 308.0 316.4" y="466.0" fill="#c0caf5"> — one token changed</text>
<text x="39.2 47.6" y="485.0" fill="#565f89">- </text>
<text x="56.0 64.4 72.8 81.2 89.6 98.0 106.4 114.8 123.2 131.6 140.0 148.4 156.8 165.2 173.6 182.0 190.4 198.8 207.2" y="485.0" fill="#7aa2f7">tests/theme.test.ts</text>
<text x="215.6 224.0 232.4 240.8 249.2 257.6 266.0 274.4 282.8 291.2 299.6 308.0 316.4 324.8 333.2 341.6 350.0 358.4 366.8 375.2 383.6" y="485.0" fill="#c0caf5"> — unchanged, 14 pass</text>
<text x="14.0 22.4 30.8 39.2 47.6 56.0 64.4 72.8 81.2 89.6 98.0 106.4 114.8 123.2 131.6 140.0 148.4 156.8 165.2 173.6 182.0 190.4 198.8 207.2 215.6 224.0 232.4 240.8 249.2 257.6 266.0 274.4 282.8 291.2 299.6 308.0 316.4 324.8 333.2 341.6 350.0 358.4 366.8 375.2 383.6 392.0 400.4 408.8 417.2 425.6" y="542.0" fill="#292e42">──────────────────────────────────────────────────</text>
<text x="434.0 442.4 450.8 459.2 467.6 476.0 484.4 492.8 501.2 509.6 518.0 526.4 534.8 543.2 551.6 560.0 568.4 576.8 585.2 593.6 602.0 610.4 618.8 627.2 635.6 644.0 652.4 660.8 669.2 677.6 686.0 694.4 702.8 711.2 719.6 728.0 736.4 744.8 753.2 761.6 770.0 778.4 786.8 795.2 803.6 812.0 820.4 828.8 837.2 845.6 854.0 862.4" y="542.0" fill="#7aa2f7"> GOAL · active · Bring the theme presets in line w… </text>
<text x="870.8" y="542.0" fill="#292e42">─</text>
<text x="14.0 22.4" y="561.0" fill="#7aa2f7">❯ </text>
<text x="30.8 39.2 47.6 56.0 64.4 72.8 81.2 89.6 98.0 106.4 114.8 123.2 131.6 140.0" y="561.0" fill="#565f89">Ask something…</text>
<text x="14.0 22.4 30.8 39.2 47.6 56.0 64.4 72.8 81.2 89.6 98.0 106.4 114.8 123.2 131.6 140.0 148.4 156.8 165.2 173.6 182.0 190.4 198.8 207.2 215.6 224.0 232.4 240.8 249.2 257.6 266.0 274.4 282.8 291.2 299.6 308.0 316.4 324.8 333.2 341.6 350.0 358.4 366.8 375.2 383.6 392.0 400.4 408.8 417.2 425.6 434.0 442.4 450.8 459.2 467.6 476.0 484.4 492.8 501.2 509.6 518.0 526.4 534.8 543.2 551.6 560.0 568.4 576.8 585.2 593.6 602.0 610.4 618.8 627.2 635.6 644.0 652.4 660.8 669.2 677.6 686.0 694.4 702.8 711.2 719.6 728.0 736.4 744.8 753.2 761.6 770.0 778.4 786.8 795.2 803.6 812.0 820.4 828.8 837.2 845.6 854.0 862.4 870.8" y="580.0" fill="#292e42">───────────────────────────────────────────────────────────────────────────────────────────────────────</text>
</g>
</svg>
